<svg xmlns="http://www.w3.org/2000/svg" viewBox="0 0 612.3 648">
  <defs>
    <style>
      .cls-1 {
        fill: #fff;
      }

      .cls-2 {
        fill: #f2f2f2;
      }

      .cls-3 {
        fill: #ffcf41;
      }

      .cls-4 {
        font-size: 58px;
        font-family: Jost-SemiBold, Jost;
        font-weight: 600;
        letter-spacing: 0em;
      }

      .cls-4, .cls-5 {
        fill: #4c4c4c;
      }

      .cls-5 {
        font-size: 40px;
        font-family: Jost-Medium, Jost;
        font-weight: 500;
        letter-spacing: 0em;
      }

      .cls-6 {
        font-family: Jost-Regular, Jost;
        font-weight: 400;
      }

      .cls-7 {
        fill: #27427c;
      }

      .cls-8 {
        fill: #28437c;
      }
    </style>
  </defs>
  <title>infrastructureV4</title>
  <g id="Layer_2" data-name="Layer 2">
    <g id="Layer_1-2" data-name="Layer 1">
      <g>
        <g>
          <rect class="cls-1" width="612.3" height="648" rx="8"/>
          <g>
            <path class="cls-2" d="M0,481.5V639.2C0,644,3.3,648,7.3,648H605c4,0,7.3-4,7.3-8.8V481.5Z"/>
            <path class="cls-3" d="M612.3,8.8C612.3,4,609,0,605,0H7.3C3.3,0,0,4,0,8.8V39.5H612.3Z"/>
          </g>
        </g>
        <text class="cls-4" transform="translate(131 321.7)">Infrastructure <tspan x="47.8" y="69.6">Condition</tspan></text>
        <text class="cls-5" transform="translate(16.3 528.3)">Objective: <tspan class="cls-6"><tspan x="0" y="48">Invest to preserve and maintain </tspan><tspan x="0" y="96">existing highways and bridges.</tspan></tspan></text>
        <g id="Layer_2-2" data-name="Layer 2">
          <g id="Layer_1-2-2" data-name="Layer 1-2">
            <circle class="cls-7" cx="306.2" cy="162.9" r="80.9"/>
            <rect class="cls-1" x="285.1" y="123.2" width="7.9" height="55.66" rx="3" transform="translate(-36.7 166.7) rotate(-30.3)"/>
            <path class="cls-1" d="M281.4,130.9h0a1.9,1.9,0,0,1-1.9,2H249.4a2,2,0,0,1-2-2h0a2,2,0,0,1,2-1.9h0a60.6,60.6,0,0,0,31.5-3.9C281.6,126.1,281.4,124.2,281.4,130.9Z"/>
            <rect class="cls-1" x="247.4" y="125" width="34" height="2.16" rx="1.1"/>
            <path class="cls-1" d="M248.5,125h3.9a3,3,0,0,1,3,2.9h0v36.5a3,3,0,0,1-3,3h-2a3,3,0,0,1-3-3V126a1,1,0,0,1,1.1-1Z"/>
            <path class="cls-1" d="M302.5,178.6a4.2,4.2,0,0,1-4.2-4.2v-16l6.9-.8a2.7,2.7,0,0,0,2.1-1.6l8.7-19.8a4.3,4.3,0,0,1,3.9-2.5h27a4.2,4.2,0,0,1,4.2,4.2v11.3a2.7,2.7,0,0,0,2.7,2.7h.8a4.2,4.2,0,0,1,4.2,4.2v18.3a4.2,4.2,0,0,1-4.2,4.2Z"/>
            <path class="cls-7" d="M346.9,134.5a3.5,3.5,0,0,1,3.5,3.4h0v11.3a3.5,3.5,0,0,0,3.4,3.5h.8a3.5,3.5,0,0,1,3.5,3.5v18.3a3.5,3.5,0,0,1-3.5,3.4H302.5a3.4,3.4,0,0,1-3.4-3.4h0V159l6.2-.7a3.3,3.3,0,0,0,2.7-2l8.7-19.8a3.5,3.5,0,0,1,3.2-2h27m0-1.6h-27a5.1,5.1,0,0,0-4.6,3l-8.7,19.8a1.8,1.8,0,0,1-1.5,1.1l-6.2.7-1.4.2v16.7a5.1,5.1,0,0,0,5,5h52.1a5,5,0,0,0,5-5V156.1a5,5,0,0,0-5-5h-.8a2,2,0,0,1-1.9-2V137.9a5,5,0,0,0-5-5Z"/>
            <path class="cls-7" d="M298.6,199a8.3,8.3,0,0,1,0-16.6h59.9a8.3,8.3,0,1,1,0,16.6Z"/>
            <path class="cls-1" d="M358.5,184.2a6.5,6.5,0,0,1,6.5,6.5,6.6,6.6,0,0,1-6.5,6.6H298.6a6.6,6.6,0,0,1-6.5-6.6,6.5,6.5,0,0,1,6.5-6.5h59.9m0-3.5H298.6a10.5,10.5,0,0,0-3.9.8,9.8,9.8,0,0,0-5.3,5.3,10.1,10.1,0,0,0,5.3,13.2,10.5,10.5,0,0,0,3.9.8h59.9a10.1,10.1,0,0,0,7.1-17.2,9.9,9.9,0,0,0-3.2-2.1,10.9,10.9,0,0,0-3.9-.8Z"/>
            <circle class="cls-1" cx="318.7" cy="190.7" r="4.4"/>
            <circle class="cls-1" cx="338.4" cy="190.7" r="4.4"/>
            <circle class="cls-1" cx="358" cy="190.7" r="4.4"/>
            <circle class="cls-1" cx="299" cy="190.7" r="4.4"/>
            <path class="cls-8" d="M325.6,139.6h15.5a2.7,2.7,0,0,1,2.7,2.7h0v8.4a3.6,3.6,0,0,1-3.2,3.5l-21.5,2.5a2.5,2.5,0,0,1-2.6-3.4l4.8-10.9A4.6,4.6,0,0,1,325.6,139.6Z"/>
            <path class="cls-1" d="M265.2,195.9h-.5l-20.1-5.2a1.9,1.9,0,0,1-1.5-1.9V165a1.9,1.9,0,0,1,1.9-2h12.6a.4.4,0,0,0,.4-.2,1.9,1.9,0,0,1,1.7-1,2,2,0,0,1,1.8,1.2l8.6,21.1c0,.2.2.3.4.3h.1l4.8-.6h.3a2.1,2.1,0,0,1,1.2,3.6l-10.5,8.1a1.8,1.8,0,0,1-1.2.5Z"/>
            <path class="cls-7" d="M259.7,162.5a1.1,1.1,0,0,1,1.1.8l8.6,21.1a1.1,1.1,0,0,0,1.1.8h.2l4.8-.7h.2a1.2,1.2,0,0,1,.7,2.2L266,194.8a1.1,1.1,0,0,1-1.1.3l-20.2-5.2a1.4,1.4,0,0,1-.9-1.2V165a1.3,1.3,0,0,1,1.2-1.2h12.6a1.1,1.1,0,0,0,1-.6,1.4,1.4,0,0,1,1.1-.7m0-1.5a2.8,2.8,0,0,0-2.3,1.3H245a2.7,2.7,0,0,0-2.7,2.7v23.7a2.7,2.7,0,0,0,2.1,2.6l20.1,5.2a2.4,2.4,0,0,0,2.4-.5l10.4-8.1a2.7,2.7,0,0,0,.9-3.1,2.8,2.8,0,0,0-.9-1.3,3.3,3.3,0,0,0-1.6-.5h-.4l-4.6.6-8.5-20.9a2.7,2.7,0,0,0-2.5-1.7Z"/>
          </g>
        </g>
      </g>
    </g>
  </g>
</svg>
