<svg xmlns="http://www.w3.org/2000/svg" viewBox="0 0 612.3 648">
  <defs>
    <style>
      .cls-1 {
        fill: #fff;
      }

      .cls-2 {
        fill: #f2f2f2;
      }

      .cls-3 {
        fill: #ffcf41;
      }

      .cls-4, .cls-5 {
        fill: #4c4c4c;
      }

      .cls-5 {
        font-size: 40px;
        font-family: Jost-Medium, Jost;
        font-weight: 500;
        letter-spacing: 0em;
      }

      .cls-6 {
        font-family: Jost-Regular, Jost;
        font-weight: 400;
      }

      .cls-7 {
        fill: #27427c;
      }

      .cls-8 {
        fill: #28437c;
      }
    </style>
  </defs>
  <title>infracV6</title>
  <g id="Layer_2" data-name="Layer 2">
    <g id="Layer_1-2" data-name="Layer 1">
      <g>
        <g>
          <rect class="cls-1" width="612.3" height="648" rx="8"/>
          <g>
            <path class="cls-2" d="M0,481.5V639.2C0,644,3.3,648,7.3,648H605c4,0,7.3-4,7.3-8.8V481.5Z"/>
            <path class="cls-3" d="M612.3,8.8C612.3,4,609,0,605,0H7.3C3.3,0,0,4,0,8.8V39.5H612.3Z"/>
          </g>
        </g>
        <g>
          <path class="cls-4" d="M143.9,281.1v40.6h-8.4V281.1Z"/>
          <path class="cls-4" d="M168.7,302.4a3.7,3.7,0,0,0-1.4-1.8,5,5,0,0,0-2.6-.6,6,6,0,0,0-2.7.6,5.8,5.8,0,0,0-1.9,1.9,5.4,5.4,0,0,0-.7,2.9v16.3h-7.5V295h7.5v4a8.8,8.8,0,0,1,3.2-3.4,9.6,9.6,0,0,1,4.9-1.2,10.7,10.7,0,0,1,5.3,1.2,8.1,8.1,0,0,1,3.1,3.5,13.2,13.2,0,0,1,1,5.5v17.1h-7.8V305.4A9.5,9.5,0,0,0,168.7,302.4Z"/>
          <path class="cls-4" d="M198.7,295v6.4H181.9V295Zm-2.1-12.2a3.3,3.3,0,0,0-1.5-.3,2.7,2.7,0,0,0-1.5.5,2.4,2.4,0,0,0-.9,1.4,7.6,7.6,0,0,0-.4,2.5v34.8H185V285.1a11.7,11.7,0,0,1,1.1-5.2,7.1,7.1,0,0,1,3.2-3.2,11.3,11.3,0,0,1,5.1-1.1,9.7,9.7,0,0,1,3.1.4,11.3,11.3,0,0,1,2.2,1.1l1.5,1.2-3.3,5.7A2.9,2.9,0,0,0,196.6,282.8Z"/>
          <path class="cls-4" d="M210.4,321.7H203V295h7.4Zm6.3-19.9a3.6,3.6,0,0,0-1.9-.4,4.1,4.1,0,0,0-2.4.8,5.7,5.7,0,0,0-1.5,2.1,10.4,10.4,0,0,0-.5,3.3l-2-2.2a12.5,12.5,0,0,1,1.2-5.6,10.5,10.5,0,0,1,3.1-4,7.2,7.2,0,0,1,4.1-1.4,8.7,8.7,0,0,1,2.8.5,5.7,5.7,0,0,1,2.1,1.5l-3.4,6.5A4.2,4.2,0,0,0,216.7,301.8Z"/>
          <path class="cls-4" d="M231.5,315.3a2.8,2.8,0,0,0,1.5,1.3,5.6,5.6,0,0,0,2.3.4,6.7,6.7,0,0,0,3.1-.7,5.5,5.5,0,0,0,2.3-2,6.7,6.7,0,0,0,.8-3.3l1,3.5a6.4,6.4,0,0,1-1.5,4.3,8.8,8.8,0,0,1-3.6,2.6,15,15,0,0,1-4.7.8,10.7,10.7,0,0,1-4.7-1,8.4,8.4,0,0,1-3.4-2.8,8.5,8.5,0,0,1-1.2-4.6,8.4,8.4,0,0,1,1.2-4.5,7.2,7.2,0,0,1,3.5-2.9,14.2,14.2,0,0,1,5.7-1,20.3,20.3,0,0,1,4.5.4,25.2,25.2,0,0,1,3.3,1.3,8.4,8.4,0,0,1,1.9,1.4v3.6a8.8,8.8,0,0,0-3.5-1.7,14.7,14.7,0,0,0-4.2-.6,10.4,10.4,0,0,0-2.8.4,4,4,0,0,0-1.6,1.2,3.6,3.6,0,0,0-.5,1.9A3.4,3.4,0,0,0,231.5,315.3Zm-6.3-17.9a44.2,44.2,0,0,1,5.1-2.1,20.1,20.1,0,0,1,6.7-1,16.6,16.6,0,0,1,6.1,1,9.2,9.2,0,0,1,4.2,2.8,7.3,7.3,0,0,1,1.5,4.6v19h-7.3V304.4a5,5,0,0,0-.3-1.9,4.7,4.7,0,0,0-1.1-1.3,4.5,4.5,0,0,0-1.7-.8l-2.2-.2a13.4,13.4,0,0,0-3.5.4,13.9,13.9,0,0,0-2.9,1,4.9,4.9,0,0,0-1.8.9Z"/>
          <path class="cls-4" d="M260.1,315a9.9,9.9,0,0,0,2.8,1.3,6.9,6.9,0,0,0,2.4.5,3.2,3.2,0,0,0,2.3-.7,2.2,2.2,0,0,0,.8-1.8,2.3,2.3,0,0,0-.7-1.7,6.2,6.2,0,0,0-1.9-1.3,22,22,0,0,0-3.2-1.2l-3.6-1.6a9.1,9.1,0,0,1-2.9-2.6,7.3,7.3,0,0,1-1.1-4.1,6.9,6.9,0,0,1,1.3-4.1,8.6,8.6,0,0,1,3.4-2.5,15.3,15.3,0,0,1,4.9-.8,14.2,14.2,0,0,1,4.2.6,19.4,19.4,0,0,1,3.6,1.5,14.4,14.4,0,0,1,3.1,2.2l-3.3,4.7a12.4,12.4,0,0,0-3.5-2.5,8.9,8.9,0,0,0-3.9-1.1,3,3,0,0,0-2,.6,1.6,1.6,0,0,0-.8,1.4,2.1,2.1,0,0,0,.8,1.6,9.7,9.7,0,0,0,2.1,1.2l3.1,1.2,4,1.8a8.8,8.8,0,0,1,2.8,2.6,6,6,0,0,1,1.1,3.9,9.5,9.5,0,0,1-1.1,4.6,8.1,8.1,0,0,1-3.4,2.9,13.4,13.4,0,0,1-5.2,1,16.7,16.7,0,0,1-5.2-.8,14.2,14.2,0,0,1-4.3-2,18.4,18.4,0,0,1-3.4-2.7l3.7-4.7A22.5,22.5,0,0,0,260.1,315Z"/>
          <path class="cls-4" d="M294.1,295v6.4H277.6V295Zm-4.6-9.3v36h-7.3v-36Z"/>
          <path class="cls-4" d="M305.4,321.7H298V295h7.4Zm6.3-19.9a4,4,0,0,0-2-.4,3.6,3.6,0,0,0-2.3.8,4.1,4.1,0,0,0-1.5,2.1,8.2,8.2,0,0,0-.5,3.3l-2.1-2.2a12.5,12.5,0,0,1,1.2-5.6,10.7,10.7,0,0,1,3.2-4,7,7,0,0,1,4.1-1.4,8.1,8.1,0,0,1,2.7.5,5.7,5.7,0,0,1,2.1,1.5l-3.4,6.5A4.8,4.8,0,0,0,311.7,301.8Z"/>
          <path class="cls-4" d="M328.7,314.1a3.5,3.5,0,0,0,1.4,1.9,4.1,4.1,0,0,0,2.5.7,6.1,6.1,0,0,0,2.8-.7,4.4,4.4,0,0,0,1.9-1.9,5.4,5.4,0,0,0,.7-2.9V295h7.5v26.7H338v-4.1a8.1,8.1,0,0,1-3.2,3.4,9.6,9.6,0,0,1-4.9,1.2,10.7,10.7,0,0,1-5.3-1.2,7.6,7.6,0,0,1-3.1-3.5,13.5,13.5,0,0,1-1-5.5V295h7.8v16.2A8.5,8.5,0,0,0,328.7,314.1Z"/>
          <path class="cls-4" d="M359.6,312.4a8.1,8.1,0,0,0,2.8,2.7,8.6,8.6,0,0,0,3.9.9,9.1,9.1,0,0,0,3.3-.5,8.5,8.5,0,0,0,3-1.5,8.3,8.3,0,0,0,2-2.2v7.7a9.6,9.6,0,0,1-3.6,2,18.8,18.8,0,0,1-12.9-1,13.9,13.9,0,0,1-5.3-4.9,15,15,0,0,1,0-14.6,13.9,13.9,0,0,1,5.3-4.9,17.7,17.7,0,0,1,7.7-1.7,16.4,16.4,0,0,1,5.2.7,11.3,11.3,0,0,1,3.6,2v7.7a7.3,7.3,0,0,0-2.1-2.2,14,14,0,0,0-3-1.5,9.1,9.1,0,0,0-3.2-.6,7.7,7.7,0,0,0-3.9,1.1,7.5,7.5,0,0,0-2.8,2.8,8.1,8.1,0,0,0-1,3.9A8.9,8.9,0,0,0,359.6,312.4Z"/>
          <path class="cls-4" d="M394.1,295v6.4H377.6V295Zm-4.6-9.3v36h-7.3v-36Z"/>
          <path class="cls-4" d="M406.2,314.1a3.5,3.5,0,0,0,1.4,1.9,3.9,3.9,0,0,0,2.5.7,6.1,6.1,0,0,0,2.8-.7,4.4,4.4,0,0,0,1.9-1.9,5.4,5.4,0,0,0,.7-2.9V295H423v26.7h-7.5v-4.1a7.8,7.8,0,0,1-3.3,3.4,9.1,9.1,0,0,1-4.9,1.2,10.5,10.5,0,0,1-5.2-1.2,7.6,7.6,0,0,1-3.1-3.5,13.5,13.5,0,0,1-1-5.5V295h7.8v16.2A8.5,8.5,0,0,0,406.2,314.1Z"/>
          <path class="cls-4" d="M437.7,321.7h-7.4V295h7.4Zm6.3-19.9a3.6,3.6,0,0,0-1.9-.4,4.1,4.1,0,0,0-2.4.8,5.7,5.7,0,0,0-1.5,2.1,10.4,10.4,0,0,0-.5,3.3l-2-2.2a12.5,12.5,0,0,1,1.2-5.6,10.5,10.5,0,0,1,3.1-4,7.2,7.2,0,0,1,4.1-1.4,8.7,8.7,0,0,1,2.8.5,5.7,5.7,0,0,1,2.1,1.5l-3.4,6.5A4.2,4.2,0,0,0,444,301.8Z"/>
          <path class="cls-4" d="M457.8,320.5a11.6,11.6,0,0,1-5-4.8,14.7,14.7,0,0,1-1.8-7.4,15.7,15.7,0,0,1,1-5.8,13,13,0,0,1,2.9-4.4,13.7,13.7,0,0,1,4.5-2.8,19.1,19.1,0,0,1,6.1-.9A16,16,0,0,1,473,296a11.6,11.6,0,0,1,4.7,4.6,15.6,15.6,0,0,1,1.7,7.4,4.1,4.1,0,0,1-.1,1.1v.8H455.4v-4.5h17.3l-2.1,2.6a4.6,4.6,0,0,0,.5-1,3.6,3.6,0,0,0,.2-1,6.7,6.7,0,0,0-.8-3.3,4.7,4.7,0,0,0-2-2.2,6.6,6.6,0,0,0-3.2-.8,8.2,8.2,0,0,0-2.8.5,4.2,4.2,0,0,0-2.1,1.6,6.2,6.2,0,0,0-1.3,2.7,12.5,12.5,0,0,0-.5,3.6,10.1,10.1,0,0,0,.8,4.5,6.1,6.1,0,0,0,2.3,2.9,6.5,6.5,0,0,0,3.8,1,8.2,8.2,0,0,0,4.2-1,7.6,7.6,0,0,0,3-2.9l6.6,2.1a14.1,14.1,0,0,1-5.5,5.6,16.7,16.7,0,0,1-8.3,1.9A15.6,15.6,0,0,1,457.8,320.5Z"/>
          <path class="cls-4" d="M191.1,376.4a13.4,13.4,0,0,0,2.8,4.2,12.9,12.9,0,0,0,4.2,2.6,13.3,13.3,0,0,0,4.9.9,16.7,16.7,0,0,0,5.2-.8,17.4,17.4,0,0,0,4.1-2,16.7,16.7,0,0,0,3.1-2.8v9.4a17.8,17.8,0,0,1-5.4,3,21.6,21.6,0,0,1-7.3,1.1,24.1,24.1,0,0,1-8.7-1.5,23,23,0,0,1-6.9-4.3,20.8,20.8,0,0,1-4.5-6.7,23.6,23.6,0,0,1,0-17.1,20.8,20.8,0,0,1,4.5-6.7,19.6,19.6,0,0,1,6.9-4.3,24.1,24.1,0,0,1,8.7-1.6,21.6,21.6,0,0,1,7.3,1.1,18.1,18.1,0,0,1,5.4,3.1v9.4a16.7,16.7,0,0,0-3.1-2.8,14.2,14.2,0,0,0-4.1-2,16.7,16.7,0,0,0-5.2-.8,13.3,13.3,0,0,0-4.9.9,11.7,11.7,0,0,0-4.2,2.7,12,12,0,0,0-2.8,4.1A13.5,13.5,0,0,0,190,371,13.3,13.3,0,0,0,191.1,376.4Z"/>
          <path class="cls-4" d="M222.9,370.6a13.9,13.9,0,0,1,5.3-4.9,17,17,0,0,1,7.6-1.7,17.3,17.3,0,0,1,7.6,1.7,13.9,13.9,0,0,1,5.3,4.9,15,15,0,0,1,0,14.6,13.9,13.9,0,0,1-5.3,4.9,16,16,0,0,1-7.6,1.7,15.8,15.8,0,0,1-7.6-1.7,13.9,13.9,0,0,1-5.3-4.9,15,15,0,0,1,0-14.6Zm6.8,11.2a6,6,0,0,0,2.5,2.7,6.9,6.9,0,0,0,3.6,1,7.5,7.5,0,0,0,3.6-1,6.9,6.9,0,0,0,2.5-2.6,8.8,8.8,0,0,0,1-4,8.1,8.1,0,0,0-1-3.9,6.6,6.6,0,0,0-2.5-2.7,7.4,7.4,0,0,0-3.6-.9,6.9,6.9,0,0,0-3.6.9,6.3,6.3,0,0,0-2.5,2.6,7.7,7.7,0,0,0-1,4A7.1,7.1,0,0,0,229.7,381.8Z"/>
          <path class="cls-4" d="M272.9,372a3.2,3.2,0,0,0-1.4-1.8,4.6,4.6,0,0,0-2.5-.6,6.1,6.1,0,0,0-2.8.6,5.8,5.8,0,0,0-1.9,1.9,6.5,6.5,0,0,0-.7,2.9v16.3h-7.5V364.6h7.5v4a8.3,8.3,0,0,1,3.3-3.4,9,9,0,0,1,4.8-1.2,10.4,10.4,0,0,1,5.3,1.2,7.6,7.6,0,0,1,3.1,3.5,13.2,13.2,0,0,1,1,5.5v17.1h-7.7V375A9.4,9.4,0,0,0,272.9,372Z"/>
          <path class="cls-4" d="M288.4,370.3a12.7,12.7,0,0,1,4.8-4.7,12.3,12.3,0,0,1,6.3-1.6,11.8,11.8,0,0,1,4.6.9,10.9,10.9,0,0,1,3.6,2.8,11.1,11.1,0,0,1,2.4,4.4,19.1,19.1,0,0,1,0,11.6,10.4,10.4,0,0,1-2.4,4.4,10.9,10.9,0,0,1-3.6,2.8,11.8,11.8,0,0,1-4.6.9,12.3,12.3,0,0,1-6.3-1.6,12.7,12.7,0,0,1-4.8-4.7,17.8,17.8,0,0,1,0-15.2Zm7.1,11.7a7.3,7.3,0,0,0,6.2,3.6,5.3,5.3,0,0,0,2.4-.6,7.9,7.9,0,0,0,2.3-1.4,7.8,7.8,0,0,0,1.6-2.4,9.4,9.4,0,0,0,0-6.6,6.3,6.3,0,0,0-1.6-2.3,6.5,6.5,0,0,0-2.3-1.5,5.2,5.2,0,0,0-2.4-.5,7.4,7.4,0,0,0-3.6.9,6.5,6.5,0,0,0-2.6,2.6,7.8,7.8,0,0,0-1,4.1A7.6,7.6,0,0,0,295.5,382Zm20.7-36v45.3h-7.6V346Z"/>
          <path class="cls-4" d="M324.2,351.2a4.5,4.5,0,0,1,3.2-1.2,4.4,4.4,0,0,1,3.2,1.2,3.8,3.8,0,0,1,1.3,3,4,4,0,0,1-1.3,3.1,4.4,4.4,0,0,1-3.2,1.2,4.5,4.5,0,0,1-3.2-1.2,4.3,4.3,0,0,1-1.2-3.1A4.1,4.1,0,0,1,324.2,351.2Zm6.8,13.4v26.7h-7.2V364.6Z"/>
          <path class="cls-4" d="M352,364.6V371H335.4v-6.4Zm-4.7-9.3v36H340v-36Z"/>
          <path class="cls-4" d="M356.8,351.2A4.4,4.4,0,0,1,360,350a4.7,4.7,0,0,1,3.2,1.2,4.2,4.2,0,0,1,1.3,3,4.4,4.4,0,0,1-1.3,3.1,4.7,4.7,0,0,1-3.2,1.2,4.4,4.4,0,0,1-3.2-1.2,4,4,0,0,1-1.3-3.1A3.8,3.8,0,0,1,356.8,351.2Zm6.8,13.4v26.7h-7.3V364.6Z"/>
          <path class="cls-4" d="M371.5,370.6a13.9,13.9,0,0,1,5.3-4.9,17,17,0,0,1,7.6-1.7,17.3,17.3,0,0,1,7.6,1.7,13.9,13.9,0,0,1,5.3,4.9,15,15,0,0,1,0,14.6,13.9,13.9,0,0,1-5.3,4.9,16,16,0,0,1-7.6,1.7,15.8,15.8,0,0,1-7.6-1.7,13.9,13.9,0,0,1-5.3-4.9,15,15,0,0,1,0-14.6Zm6.8,11.2a6,6,0,0,0,2.5,2.7,6.9,6.9,0,0,0,3.6,1,6.8,6.8,0,0,0,3.5-1,6.5,6.5,0,0,0,2.6-2.6,8.8,8.8,0,0,0,1-4,8.1,8.1,0,0,0-1-3.9,6.2,6.2,0,0,0-2.6-2.7,6.8,6.8,0,0,0-3.5-.9,6.9,6.9,0,0,0-3.6.9,6.3,6.3,0,0,0-2.5,2.6,7.7,7.7,0,0,0-1,4A7.1,7.1,0,0,0,378.3,381.8Z"/>
          <path class="cls-4" d="M421.5,372a3.2,3.2,0,0,0-1.4-1.8,4.9,4.9,0,0,0-2.5-.6,6.1,6.1,0,0,0-2.8.6,5.8,5.8,0,0,0-1.9,1.9,6.5,6.5,0,0,0-.7,2.9v16.3h-7.5V364.6h7.5v4a8.3,8.3,0,0,1,3.3-3.4,9,9,0,0,1,4.8-1.2,10.4,10.4,0,0,1,5.3,1.2,7.6,7.6,0,0,1,3.1,3.5,13.2,13.2,0,0,1,1,5.5v17.1H422V375A9.4,9.4,0,0,0,421.5,372Z"/>
        </g>
        <text class="cls-5" transform="translate(16.3 528.3)">Objective: <tspan class="cls-6"><tspan x="0" y="48">Invest to preserve and maintain </tspan><tspan x="0" y="96">existing highways and bridges</tspan></tspan></text>
        <g id="Layer_2-2" data-name="Layer 2">
          <g id="Layer_1-2-2" data-name="Layer 1-2">
            <circle class="cls-7" cx="306.2" cy="162.9" r="80.9"/>
            <rect class="cls-1" x="285.1" y="123.2" width="7.9" height="55.66" rx="3" transform="translate(-36.7 166.7) rotate(-30.3)"/>
            <path class="cls-1" d="M281.4,130.9h0a1.9,1.9,0,0,1-1.9,2H249.4a2,2,0,0,1-2-2h0a2,2,0,0,1,2-1.9h0a60.6,60.6,0,0,0,31.5-3.9C281.6,126.1,281.4,124.2,281.4,130.9Z"/>
            <rect class="cls-1" x="247.4" y="125" width="34" height="2.16" rx="1.1"/>
            <path class="cls-1" d="M248.5,125h3.9a3,3,0,0,1,3,2.9h0v36.5a3,3,0,0,1-3,3h-2a3,3,0,0,1-3-3V126a1,1,0,0,1,1.1-1Z"/>
            <path class="cls-1" d="M302.5,178.6a4.2,4.2,0,0,1-4.2-4.2v-16l6.9-.8a2.7,2.7,0,0,0,2.1-1.6l8.7-19.8a4.3,4.3,0,0,1,3.9-2.5h27a4.2,4.2,0,0,1,4.2,4.2v11.3a2.7,2.7,0,0,0,2.7,2.7h.8a4.2,4.2,0,0,1,4.2,4.2v18.3a4.2,4.2,0,0,1-4.2,4.2Z"/>
            <path class="cls-7" d="M346.9,134.5a3.5,3.5,0,0,1,3.5,3.4h0v11.3a3.5,3.5,0,0,0,3.4,3.5h.8a3.5,3.5,0,0,1,3.5,3.5v18.3a3.5,3.5,0,0,1-3.5,3.4H302.5a3.4,3.4,0,0,1-3.4-3.4h0V159l6.2-.7a3.3,3.3,0,0,0,2.7-2l8.7-19.8a3.5,3.5,0,0,1,3.2-2h27m0-1.6h-27a5.1,5.1,0,0,0-4.6,3l-8.7,19.8a1.8,1.8,0,0,1-1.5,1.1l-6.2.7-1.4.2v16.7a5.1,5.1,0,0,0,5,5h52.1a5,5,0,0,0,5-5V156.1a5,5,0,0,0-5-5h-.8a2,2,0,0,1-1.9-2V137.9a5,5,0,0,0-5-5Z"/>
            <path class="cls-7" d="M298.6,199a8.3,8.3,0,0,1,0-16.6h59.9a8.3,8.3,0,1,1,0,16.6Z"/>
            <path class="cls-1" d="M358.5,184.2a6.5,6.5,0,0,1,6.5,6.5,6.6,6.6,0,0,1-6.5,6.6H298.6a6.6,6.6,0,0,1-6.5-6.6,6.5,6.5,0,0,1,6.5-6.5h59.9m0-3.5H298.6a10.5,10.5,0,0,0-3.9.8,9.8,9.8,0,0,0-5.3,5.3,10.1,10.1,0,0,0,5.3,13.2,10.5,10.5,0,0,0,3.9.8h59.9a10.1,10.1,0,0,0,7.1-17.2,9.9,9.9,0,0,0-3.2-2.1,10.9,10.9,0,0,0-3.9-.8Z"/>
            <circle class="cls-1" cx="318.7" cy="190.7" r="4.4"/>
            <circle class="cls-1" cx="338.4" cy="190.7" r="4.4"/>
            <circle class="cls-1" cx="358" cy="190.7" r="4.4"/>
            <circle class="cls-1" cx="299" cy="190.7" r="4.4"/>
            <path class="cls-8" d="M325.6,139.6h15.5a2.7,2.7,0,0,1,2.7,2.7h0v8.4a3.6,3.6,0,0,1-3.2,3.5l-21.5,2.5a2.5,2.5,0,0,1-2.6-3.4l4.8-10.9A4.6,4.6,0,0,1,325.6,139.6Z"/>
            <path class="cls-1" d="M265.2,195.9h-.5l-20.1-5.2a1.9,1.9,0,0,1-1.5-1.9V165a1.9,1.9,0,0,1,1.9-2h12.6a.4.4,0,0,0,.4-.2,1.9,1.9,0,0,1,1.7-1,2,2,0,0,1,1.8,1.2l8.6,21.1c0,.2.2.3.4.3h.1l4.8-.6h.3a2.1,2.1,0,0,1,1.2,3.6l-10.5,8.1a1.8,1.8,0,0,1-1.2.5Z"/>
            <path class="cls-7" d="M259.7,162.5a1.1,1.1,0,0,1,1.1.8l8.6,21.1a1.1,1.1,0,0,0,1.1.8h.2l4.8-.7h.2a1.2,1.2,0,0,1,.7,2.2L266,194.8a1.1,1.1,0,0,1-1.1.3l-20.2-5.2a1.4,1.4,0,0,1-.9-1.2V165a1.3,1.3,0,0,1,1.2-1.2h12.6a1.1,1.1,0,0,0,1-.6,1.4,1.4,0,0,1,1.1-.7m0-1.5a2.8,2.8,0,0,0-2.3,1.3H245a2.7,2.7,0,0,0-2.7,2.7v23.7a2.7,2.7,0,0,0,2.1,2.6l20.1,5.2a2.4,2.4,0,0,0,2.4-.5l10.4-8.1a2.7,2.7,0,0,0,.9-3.1,2.8,2.8,0,0,0-.9-1.3,3.3,3.3,0,0,0-1.6-.5h-.4l-4.6.6-8.5-20.9a2.7,2.7,0,0,0-2.5-1.7Z"/>
          </g>
        </g>
      </g>
    </g>
  </g>
</svg>
